<?xml version="1.0" encoding="UTF-8"?><svg id="Layer_2" xmlns="http://www.w3.org/2000/svg" viewBox="0 0 522.65 420.52"><g id="Layer_1-2"><g><path d="M466.11,420.52H68.94c-12.23,0-30.17-1.03-44.58-9.95-11.11-6.87-24.35-21.13-24.35-49.98V49.5C0,31.98,5.58,18.82,16.58,10.38,25.79,3.3,38.08,0,55.24,0H454.5c19.82,0,35.93,.52,48.02,7.12,18.05,9.85,20.14,28.91,20.14,42.38V343.11c0,25.33-4.54,43.95-13.89,56.93-6.73,9.35-19.6,20.49-42.65,20.49ZM55.24,33c-11.52,0-16.46,1.93-18.56,3.55-2.44,1.87-3.67,6.23-3.67,12.95V360.59c0,18.25,5.38,26.94,35.94,26.94H466.11c8.23,0,23.54,0,23.54-44.41V49.5c0-7.83-.99-12.35-2.95-13.41-5.65-3.09-22.92-3.09-32.2-3.09H55.24Z"/><path d="M433.11,178.57h-151.83c-9.11,0-16.5-7.39-16.5-16.5s7.39-16.5,16.5-16.5h151.83c9.11,0,16.5,7.39,16.5,16.5s-7.39,16.5-16.5,16.5Z"/><path d="M433.11,271.44h-151.83c-9.11,0-16.5-7.39-16.5-16.5s7.39-16.5,16.5-16.5h151.83c9.11,0,16.5,7.39,16.5,16.5s-7.39,16.5-16.5,16.5Z"/><circle cx="157.15" cy="155.33" r="39.13"/><path d="M102.98,222.46h104.48c7.83,0,14.78,9.33,14.87,27.78,.1,20.35-15.65,48.52-61.43,48.52s-65.61-24-68.09-43.83c-1.31-10.48-1.17-29.74,10.17-32.48Z"/></g></g></svg>