<svg width="380" height="18" viewBox="0 0 380 18" fill="none" xmlns="http://www.w3.org/2000/svg">
<path d="M5 9C13.2222 3.66667 21.4444 3.66667 29.6667 9C37.8889 14.3333 46.1111 14.3333 54.3333 9C62.5556 3.66667 70.7778 3.66667 79 9C87.2222 14.3333 95.4444 14.3333 103.667 9C111.889 3.66667 120.111 3.66667 128.333 9C136.556 14.3333 144.778 14.3333 153 9C161.222 3.66667 169.444 3.66667 177.667 9C185.889 14.3333 194.111 14.3333 202.333 9C210.556 3.66667 218.778 3.66667 227 9C235.222 14.3333 243.444 14.3333 251.667 9C259.889 3.66667 268.111 3.66667 276.333 9C284.556 14.3333 292.778 14.3333 301 9C309.222 3.66667 317.444 3.66667 325.667 9C333.889 14.3333 342.111 14.3333 350.333 9C358.556 3.66667 366.778 3.66667 375 9" stroke="#FF7A00" stroke-width="9" stroke-linecap="round"/>
</svg>
