<?xml version="1.0" encoding="UTF-8"?><svg id="Layer_2" xmlns="http://www.w3.org/2000/svg" viewBox="0 0 748 607"><g id="Layer_1-2"><g><path d="M748,607H83c-62.71,0-83-50.53-83-75V78C0,34.26,38.21,0,87,0c44.47,0,81.25,32.38,86.39,74H748V607ZM87,20c-37.57,0-67,25.48-67,58v454c0,6.41,2.72,20.64,12.93,33.37,11.51,14.35,28.36,21.63,50.07,21.63H728V94H154v-10c0-35.29-30.06-64-67-64Z"/><path d="M154.06,522.25c-.3-2.55-7.96-63.1-64.56-63.1s-69.24,52.44-69.72,54.67L.21,509.73c.15-.73,3.84-18,16.55-35.22,11.91-16.13,34.21-35.36,72.74-35.36,27.01,0,49.09,10.78,64.5,31.31V84h20v437.15l-19.94,1.1Z"/><rect x="254.63" y="453.24" width="374.87" height="20"/><polygon points="289.4 364.32 276.21 349.28 403.71 237.52 484.02 316.27 570.15 233.76 583.98 248.2 483.85 344.12 402.95 264.78 289.4 364.32"/><polygon points="628.02 295.21 577.07 242.72 526.11 190.23 578.13 190.7 630.16 191.17 629.09 243.19 628.02 295.21"/></g></g></svg>