<?xml version="1.0" encoding="UTF-8"?><svg id="Layer_2" xmlns="http://www.w3.org/2000/svg" viewBox="0 0 377.09 333.52"><g id="Layer_1-2"><g><path d="M335.28,333.52H47.67c-9.05,0-20.68-.73-30.37-6.44-7.89-4.65-17.3-14.42-17.3-34.58V92.94c0-9.74,8.49-35.02,47.28-35.02H320.41c.76,0,1.65-.02,2.63-.04,9.54-.2,29.38-.61,42.43,12.17,7.71,7.55,11.62,18.15,11.62,31.5v190.57c0,16.01-11.35,41.41-41.8,41.41ZM21,93.05v199.45c0,15.16,6.48,20.02,26.67,20.02H335.28c20.57,0,20.8-19.58,20.8-20.41V101.54c0-7.6-1.74-13-5.31-16.5-6.74-6.6-20.11-6.33-27.3-6.18-1.14,.02-2.17,.04-3.06,.04H47.28c-24.38,0-26.15,12.45-26.28,14.14Zm0-.12v0Z"/><path d="M275.35,319.11h-21V45.46c0-16.23-7.44-24.46-22.11-24.46h-80.09c-12.61,0-23.94,2.21-23.94,28.89V319.11h-21V49.89c0-19.25,5.33-33.2,15.85-41.46C132.71,.87,144.28,0,152.15,0h80.09c19.89,0,43.11,11.9,43.11,45.46V319.11Z"/></g></g></svg>